<svg width="85" height="34" viewBox="0 0 85 34" fill="none" xmlns="http://www.w3.org/2000/svg">
<path d="M0.65625 26V23.9492L2.47266 23.5977V11.3516L0.65625 11V8.9375H2.47266H8.77734C10.082 8.9375 11.207 9.16797 12.1523 9.62891C13.0977 10.082 13.8242 10.7188 14.332 11.5391C14.8398 12.3516 15.0938 13.3008 15.0938 14.3867C15.0938 15.4727 14.8398 16.4258 14.332 17.2461C13.8242 18.0586 13.0977 18.6914 12.1523 19.1445C11.207 19.5898 10.082 19.8125 8.77734 19.8125H5.89453V23.5977L7.72266 23.9492V26H0.65625ZM5.89453 17.1758H8.77734C9.73047 17.1758 10.4492 16.918 10.9336 16.4023C11.4258 15.8789 11.6719 15.2148 11.6719 14.4102C11.6719 13.5898 11.4258 12.9141 10.9336 12.3828C10.4492 11.8438 9.73047 11.5742 8.77734 11.5742H5.89453V17.1758ZM21.6562 26.2461C20.3203 26.2461 19.2695 25.8242 18.5039 24.9805C17.7461 24.1289 17.3672 22.8086 17.3672 21.0195V15.7344L15.9727 15.3828V13.3203H17.3672H20.7891V21.043C20.7891 21.9492 20.9453 22.6016 21.2578 23C21.5781 23.3906 22.0586 23.5859 22.6992 23.5859C23.207 23.5859 23.6562 23.4883 24.0469 23.293C24.4375 23.0898 24.7578 22.8047 25.0078 22.4375V15.7344L23.4961 15.3828V13.3203H25.0078H28.4297V23.5977L29.9531 23.9492V26H25.4297L25.1953 24.3945C24.7969 24.9883 24.2969 25.4453 23.6953 25.7656C23.0938 26.0859 22.4141 26.2461 21.6562 26.2461ZM31.4883 26V23.9492L33.1289 23.5977V15.7344L31.3125 15.3828V13.3203H36.3164L36.4453 14.8906L36.4688 15.1719C36.7812 14.4844 37.168 13.9648 37.6289 13.6133C38.0898 13.2617 38.6406 13.0859 39.2812 13.0859C39.4844 13.0859 39.707 13.1055 39.9492 13.1445C40.1914 13.1758 40.4062 13.2188 40.5938 13.2734L40.2305 16.4258L38.5312 16.332C38.0469 16.3086 37.6523 16.3906 37.3477 16.5781C37.0508 16.7656 36.7852 17.0352 36.5508 17.3867V23.5977L38.1914 23.9492V26H31.4883ZM47.0508 26.2461C46.1055 26.2461 45.2227 26.1562 44.4023 25.9766C43.5898 25.7969 42.8086 25.5391 42.0586 25.2031L42.0234 21.6172H44.4023L44.8594 23.4453C45.125 23.5781 45.4141 23.6836 45.7266 23.7617C46.0469 23.8398 46.4102 23.8789 46.8164 23.8789C47.582 23.8789 48.1211 23.7539 48.4336 23.5039C48.7461 23.2539 48.9023 22.9414 48.9023 22.5664C48.9023 22.2148 48.7344 21.9062 48.3984 21.6406C48.0703 21.3672 47.4102 21.1289 46.418 20.9258C44.918 20.6133 43.8125 20.1289 43.1016 19.4727C42.3906 18.8164 42.0352 17.9766 42.0352 16.9531C42.0352 16.25 42.2109 15.6094 42.5625 15.0312C42.9219 14.4531 43.4648 13.9883 44.1914 13.6367C44.9258 13.2852 45.8633 13.1094 47.0039 13.1094C47.957 13.1094 48.8281 13.2031 49.6172 13.3906C50.4141 13.5703 51.082 13.8086 51.6211 14.1055L51.6562 17.5742H49.2891L48.9258 15.9102C48.7148 15.7539 48.4648 15.6367 48.1758 15.5586C47.8945 15.4805 47.5742 15.4414 47.2148 15.4414C46.6133 15.4414 46.1523 15.5625 45.832 15.8047C45.5117 16.0469 45.3516 16.3594 45.3516 16.7422C45.3516 16.9609 45.4062 17.1641 45.5156 17.3516C45.6328 17.5391 45.8594 17.7148 46.1953 17.8789C46.5312 18.043 47.0195 18.1992 47.6602 18.3477C49.2305 18.707 50.375 19.1875 51.0938 19.7891C51.8125 20.3828 52.1719 21.2188 52.1719 22.2969C52.1719 23.4766 51.7422 24.4297 50.8828 25.1562C50.0312 25.8828 48.7539 26.2461 47.0508 26.2461ZM59.1094 26.2461C57.7734 26.2461 56.7227 25.8242 55.957 24.9805C55.1992 24.1289 54.8203 22.8086 54.8203 21.0195V15.7344L53.4258 15.3828V13.3203H54.8203H58.2422V21.043C58.2422 21.9492 58.3984 22.6016 58.7109 23C59.0312 23.3906 59.5117 23.5859 60.1523 23.5859C60.6602 23.5859 61.1094 23.4883 61.5 23.293C61.8906 23.0898 62.2109 22.8047 62.4609 22.4375V15.7344L60.9492 15.3828V13.3203H62.4609H65.8828V23.5977L67.4062 23.9492V26H62.8828L62.6484 24.3945C62.25 24.9883 61.75 25.4453 61.1484 25.7656C60.5469 26.0859 59.8672 26.2461 59.1094 26.2461ZM68.5781 26V23.9492L70.2305 23.5977V15.7344L68.4023 15.3828V13.3203H73.6523V23.5977L75.293 23.9492V26H68.5781ZM70.1133 10.6367V7.71875H73.6523V10.6367H70.1133ZM81.4219 26.2461C80.2422 26.2461 79.332 25.9219 78.6914 25.2734C78.0586 24.625 77.7422 23.5977 77.7422 22.1914V15.7227H75.9961V13.3203H77.7422V10.2148H81.1523V13.3203H83.4844V15.7227H81.1523V22.1797C81.1523 22.6719 81.2539 23.0234 81.457 23.2344C81.668 23.4453 81.9531 23.5508 82.3125 23.5508C82.5 23.5508 82.7031 23.5391 82.9219 23.5156C83.1406 23.4844 83.3281 23.4531 83.4844 23.4219L83.7773 25.8945C83.4258 25.9961 83.043 26.0781 82.6289 26.1406C82.2227 26.2109 81.8203 26.2461 81.4219 26.2461Z" fill="white"/>
</svg>
