<svg width="24" height="22" viewBox="0 0 24 22" fill="none" xmlns="http://www.w3.org/2000/svg">
<path id="Vector" d="M11.2742 3.94772L11.9978 4.70622L12.7214 3.94772C13.7672 2.85138 15.4666 1.5 17.3116 1.5C19.0418 1.5 20.4511 2.09993 21.4256 3.07415C22.4001 4.04835 23 5.45703 23 7.18609C23 9.06431 22.2687 10.6358 21.0978 12.0974C19.9077 13.5828 18.3141 14.8952 16.6447 16.265C16.6447 16.2651 16.6446 16.2651 16.6446 16.2652L16.6249 16.2813C15.0847 17.5446 13.405 18.9223 12.1005 20.4664C12.0808 20.4893 12.0544 20.5 12.0305 20.5H11.9673C11.9422 20.5 11.9151 20.4886 11.8955 20.4656L11.1327 21.1122L11.8972 20.4675C10.6056 18.9359 8.94115 17.5686 7.41369 16.3139L7.35476 16.2655L7.35436 16.2652C5.68446 14.8949 4.09108 13.5821 2.90139 12.0967C1.7309 10.6352 1 9.06388 1 7.18609C1 5.45703 1.59989 4.04838 2.57447 3.07419C3.54906 2.09998 4.95864 1.5 6.68945 1.5C8.53279 1.5 10.2276 2.85056 11.2742 3.94772Z" stroke="white" stroke-width="2"/>
</svg>
