<svg width="105" height="17" viewBox="0 0 105 17" fill="none" xmlns="http://www.w3.org/2000/svg">
<g id="Group 18073">
<path id="Vector" d="M17.3698 6.99596H10.7403L8.6849 0.896484L6.62947 6.99596H0L5.35569 10.7601L3.32921 16.8321L8.6849 13.068L14.0406 16.8321L11.9852 10.7326L17.3698 6.99596Z" fill="#FFD44D"/>
<path id="Vector_2" d="M39.0827 6.99596H32.4532L30.3978 0.896484L28.3424 6.99596H21.7129L27.0686 10.7601L25.0421 16.8321L30.3978 13.068L35.7535 16.8321L33.698 10.7326L39.0827 6.99596Z" fill="#FFD44D"/>
<path id="Vector_3" d="M60.7936 6.99596H54.1642L52.1087 0.896484L50.0533 6.99596H43.4238L48.7795 10.7601L46.753 16.8321L52.1087 13.068L57.4644 16.8321L55.409 10.7326L60.7936 6.99596Z" fill="#FFD44D"/>
<path id="Vector_4" d="M82.5065 6.99596H75.877L73.8216 0.896484L71.7662 6.99596H65.1367L70.4924 10.7601L68.4659 16.8321L73.8216 13.068L79.1773 16.8321L77.1219 10.7326L82.5065 6.99596Z" fill="#FFD44D"/>
<path id="Vector_5" d="M104.219 6.99596H97.5899L95.5345 0.896484L93.4791 6.99596H86.8496L92.2053 10.7601L90.1788 16.8321L95.5345 13.068L100.89 16.8321L98.8348 10.7326L104.219 6.99596Z" fill="#FFD44D"/>
</g>
</svg>
